<?xml version="1.0" encoding="UTF-8"?><svg xmlns="http://www.w3.org/2000/svg" xmlns:xlink="http://www.w3.org/1999/xlink" height="77.7" preserveAspectRatio="xMidYMid meet" version="1.0" viewBox="-0.2 -0.1 54.0 77.7" width="54.0" zoomAndPan="magnify"><g data-name="23" id="change1_1"><path d="M25.17,6.717c-.01-1.66,0-3.31.01-4.97a1.652,1.652,0,1,1,3.3-.01c.011.58,0,1.16,0,1.74v.38l.011,1.13c0,.58,0,1.16-.011,1.74a1.847,1.847,0,0,1-.519,1.33,1.588,1.588,0,0,1-1.13.43h-.041A1.618,1.618,0,0,1,25.17,6.717ZM6.16,40.977,5.979,41a1.121,1.121,0,0,0-.46.13L4.7,41.6c-1.35.77-2.7,1.54-4.03,2.34a1.561,1.561,0,0,0-.45,2.1,1.616,1.616,0,0,0,1.41.87,1.41,1.41,0,0,0,.69-.17c1.53-.84,3.1-1.74,4.81-2.77a1.5,1.5,0,0,0,.59-1.84A1.6,1.6,0,0,0,6.16,40.977ZM.13,16.717a1.58,1.58,0,0,0,.59.79c1.49.92,3.04,1.82,4.75,2.75a1.4,1.4,0,0,0,.719.19,1.547,1.547,0,0,0,.431-.06,1.7,1.7,0,0,0,1-.84,1.6,1.6,0,0,0-.54-2.14c-1.4-.83-3.041-1.8-4.7-2.7a1.5,1.5,0,0,0-1.49.01A1.876,1.876,0,0,0,0,16.337v.14l.071.13A.542.542,0,0,1,.13,16.717Zm53.63-.51a1.842,1.842,0,0,0-.98-1.48,1.8,1.8,0,0,0-1.71.07c-1.46.82-2.92,1.67-4.37,2.53a1.657,1.657,0,0,0-.65,2.26,1.62,1.62,0,0,0,1.42.85,1.723,1.723,0,0,0,.86-.24c1.45-.81,2.99-1.69,4.48-2.6a2.244,2.244,0,0,0,.669-.75c.06-.1.121-.19.181-.28l.129-.16ZM52.81,43.8q-2.175-1.26-4.36-2.51a1.849,1.849,0,0,0-1.44-.23,1.557,1.557,0,0,0-.96.77,1.7,1.7,0,0,0,.76,2.33q2.085,1.215,4.2,2.43a3.407,3.407,0,0,0,.58.24l.23.08h.11a1.644,1.644,0,0,0,1.65-1.23A1.6,1.6,0,0,0,52.81,43.8ZM35.82,67.567v5.96a4.116,4.116,0,0,1-4.11,4.11H22.08a4.11,4.11,0,0,1-4.11-4.11v-5.96a4.11,4.11,0,0,1,4.11-4.11h9.63A4.116,4.116,0,0,1,35.82,67.567Zm-2.8,0a1.316,1.316,0,0,0-1.309-1.32H22.08a1.319,1.319,0,0,0-1.32,1.32v5.96a1.319,1.319,0,0,0,1.32,1.32h9.63a1.316,1.316,0,0,0,1.309-1.32ZM45.93,33.187a18.768,18.768,0,0,1-5.63,11.57,15.082,15.082,0,0,0-4.1,8.1,61.037,61.037,0,0,0-.85,6.91c-.15,1.68-.97,2.58-2.68,2.58H20.96a2.375,2.375,0,0,1-2.63-2.56,29.181,29.181,0,0,0-1.95-10.4,15.309,15.309,0,0,0-3.131-4.75C7.89,39,6.189,32.347,8.62,24.987c2.45-7.37,7.78-11.77,15.47-12.97A19.2,19.2,0,0,1,45.93,33.187ZM25.519,15c-6.649.61-11.409,4.16-13.739,10.41-2.341,6.3-.98,12.04,3.62,16.98.49.53,1,1.05,1.45,1.62a22.842,22.842,0,0,1,4.24,11.28c.179,1.29.26,2.59.389,3.87l10.731.03c.03-.35.03-.67.079-1,.281-2.03.451-4.08.881-6.08a18.976,18.976,0,0,1,5.44-10.09,13.731,13.731,0,0,0,3.13-4.82C46.3,26.077,37.47,13.907,25.519,15Z"/></g></svg>